{"title":"Formula 1 2011 Race 14 Singapore Race &amp; Build Up HD 1080 H26","uid":6701754,"size":4648257000,"categoryP":"video","categoryS":"hd___tv_shows","magnet":"?xt=urn:btih:0f359ffb33b0ce504eb62b2cc2272bfae3cc9566&amp;dn=Formula+1+2011+Race+14+Singapore+Race+%26amp%3B+Build+Up+HD+1080+H26&amp;tr=udp%3A%2F%2Ftracker.openbittorrent.com%3A80&amp;tr=udp%3A%2F%2Fopen.demonii.com%3A1337&amp;tr=udp%3A%2F%2Ftracker.coppersurfer.tk%3A6969&amp;tr=udp%3A%2F%2Fexodus.desync.com%3A6969","seeders":0,"leechers":1,"uploader":"jorrell0733","files":4,"time":1317003191,"description":"[img]http://www.khaolaknews.com/wp-content/uploads/2011/03/f1.jpg[/img]\n\nFormula One 2011 Season\nSingapore Race &amp; Build Up In High Definition\n\nRace 14: Singapore Grand Prix, \n\nRecord Source: BBC One HD\nOriginal Format: MPEG TS Stream\nDate: Sunday 25th Sept 2011\nTime: 12:10 to 15:15\n\n\nJake Humphrey, Martin Brundle, David Coulthard &amp; Eddie Jordan present the BBC F1 coverage for the \n14th Race meeting of the 2011 Formula One Season, the Singapore Grand Prix\n\n\nThe Race has been split into 2 seperate files. One is the Race only, \nand the other is the 1 hr pre race build up.\nYou can download both or just download which you want.!\n\nSingapore Race Build Up:\n\nComplete Name:\t\t\t : F1 2011 Race 14 Singapore Race Build Up 1080 H264 AC3 DD.mkv\nFormat                           : Matroska\nFormat version                   : Version 2\nFile size                        : 1.00 GiB\nDuration                         : 44mn 58s\nOverall bit rate                 : 3 186 Kbps\nWriting application              : HandBrake 0.9.5\nWriting library                  : libmkv 0.6.4.1\n\nVideo\nID                               : 1\nFormat                           : AVC\nFormat/Info                      : Advanced Video Codec\nFormat profile                   : &lt;a class=&quot;__cf_email__&quot; href=&quot;/cdn-cgi/l/email-protection&quot; data-cfemail=&quot;bef3dfd7d0fef28a908e&quot;&gt;[email&amp;#160;protected]&lt;/a&gt;&lt;script data-cfhash='f9e31' type=&quot;text/javascript&quot;&gt;\n/* &lt;![CDATA[ */!function(){try{var t=&quot;currentScript&quot;in document?document.currentScript:function(){for(var t=document.getElementsByTagName(&quot;script&quot;),e=t.length;e--;)if(t[e].getAttribute(&quot;data-cfhash&quot;))return t[e]}();if(t&amp;&amp;t.previousSibling){var e,r,n,i,c=t.previousSibling,a=c.getAttribute(&quot;data-cfemail&quot;);if(a){for(e=&quot;&quot;,r=parseInt(a.substr(0,2),16),n=2;a.length-n;n+=2)i=parseInt(a.substr(n,2),16)^r,e+=String.fromCharCode(i);e=document.createTextNode(e),c.parentNode.replaceChild(e,c)}t.parentNode.removeChild(t);}}catch(u){}}()/* ]]&gt; */&lt;/script&gt;\nFormat settings, CABAC           : Yes\nFormat settings, ReFrames        : 4 frames\nFormat settings, GOP             : M=3, N=60\nCodec ID                         : V_MPEG4/ISO/AVC\nDuration                         : 44mn 58s\nBit rate                         : 3 050 Kbps\nWidth                            : 1 440 pixels\nHeight                           : 1 080 pixels\nDisplay aspect ratio             : 16:9\nFrame rate mode                  : Variable\nFrame rate                       : 25.000 fps\nColor space                      : YUV\nChroma subsampling               : 4:2:0\nBit depth                        : 8 bits\nScan type                        : Progressive\nBits/(Pixel*Frame)               : 0.078\nStream size                      : 963 MiB (94%)\nWriting library                  : x264 core 112\nEncoding settings                : cabac=1 / ref=2 / deblock=1:0:0 / analyse=0x1:0x111 / me=hex / \n\nsubme=6 / psy=1 / psy_rd=1.00:0.00 / mixed_ref=0 / me_range=16 / chroma_me=1 / trellis=0 / 8x8dct=0 \n\n/ cqm=0 / deadzone=21,11 / fast_pskip=1 / chroma_qp_offset=-2 / threads=3 / sliced_threads=0 / nr=0 \n\n/ decimate=1 / interlaced=0 / constrained_intra=0 / bframes=2 / b_pyramid=2 / b_adapt=1 / b_bias=0 / \n\ndirect=1 / weightb=0 / open_gop=0 / weightp=2 / keyint=250 / keyint_min=25 / scenecut=40 / \n\nintra_refresh=0 / rc_lookahead=40 / rc=abr / mbtree=1 / bitrate=3050 / ratetol=1.0 / qcomp=0.60 / \n\nqpmin=3 / qpmax=51 / qpstep=4 / ip_ratio=1.40 / aq=1:1.00\nLanguage                         : English\nColor primaries                  : BT.709-5, BT.1361, IEC 61966-2-4, SMPTE RP177\nTransfer characteristics         : BT.709-5, BT.1361\nMatrix coefficients              : BT.709-5, BT.1361, IEC 61966-2-4 709, SMPTE RP177\n\nAudio\nID                               : 2\nFormat                           : AC-3\nFormat/Info                      : Audio Coding 3\nMode extension                   : CM (complete main)\nCodec ID                         : A_AC3\nDuration                         : 44mn 58s\nBit rate mode                    : Constant\nBit rate                         : 128 Kbps\nChannel(s)                       : 2 channels\nChannel positions                : Front: L R\nSampling rate                    : 48.0 KHz\nBit depth                        : 16 bits\nCompression mode                 : Lossy\nStream size                      : 41.2 MiB (4%)\nLanguage                         : English\n\n\n\nItalian Race: \n\nComplete Name:\t\t\t : F1 2011 Race 14 Singapore Race 1080 H264 AC3 DD.mkv\nFormat                           : Matroska\nFormat version                   : Version 2\nFile size                        : 3.33 GiB\nDuration                         : 2h 32mn\nOverall bit rate                 : 3 134 Kbps\nWriting application              : HandBrake 0.9.5\nWriting library                  : libmkv 0.6.4.1\n\nVideo\nID                               : 1\nFormat                           : AVC\nFormat/Info                      : Advanced Video Codec\nFormat profile                   : &lt;a class=&quot;__cf_email__&quot; href=&quot;/cdn-cgi/l/email-protection&quot; data-cfemail=&quot;f5b8949c9bb5b9c1dbc5&quot;&gt;[email&amp;#160;protected]&lt;/a&gt;&lt;script data-cfhash='f9e31' type=&quot;text/javascript&quot;&gt;\n/* &lt;![CDATA[ */!function(){try{var t=&quot;currentScript&quot;in document?document.currentScript:function(){for(var t=document.getElementsByTagName(&quot;script&quot;),e=t.length;e--;)if(t[e].getAttribute(&quot;data-cfhash&quot;))return t[e]}();if(t&amp;&amp;t.previousSibling){var e,r,n,i,c=t.previousSibling,a=c.getAttribute(&quot;data-cfemail&quot;);if(a){for(e=&quot;&quot;,r=parseInt(a.substr(0,2),16),n=2;a.length-n;n+=2)i=parseInt(a.substr(n,2),16)^r,e+=String.fromCharCode(i);e=document.createTextNode(e),c.parentNode.replaceChild(e,c)}t.parentNode.removeChild(t);}}catch(u){}}()/* ]]&gt; */&lt;/script&gt;\nFormat settings, CABAC           : Yes\nFormat settings, ReFrames        : 4 frames\nFormat settings, GOP             : M=3, N=61\nCodec ID                         : V_MPEG4/ISO/AVC\nDuration                         : 2h 32mn\nBit rate                         : 3 000 Kbps\nWidth                            : 1 440 pixels\nHeight                           : 1 078 pixels\nDisplay aspect ratio             : 16:9\nFrame rate mode                  : Variable\nFrame rate                       : 25.000 fps\nColor space                      : YUV\nChroma subsampling               : 4:2:0\nBit depth                        : 8 bits\nScan type                        : Progressive\nBits/(Pixel*Frame)               : 0.077\nStream size                      : 3.13 GiB (94%)\nWriting library                  : x264 core 112\nEncoding settings                : cabac=1 / ref=2 / deblock=1:0:0 / analyse=0x1:0x111 / me=hex / \n\nsubme=6 / psy=1 / psy_rd=1.00:0.00 / mixed_ref=0 / me_range=16 / chroma_me=1 / trellis=0 / 8x8dct=0 \n\n/ cqm=0 / deadzone=21,11 / fast_pskip=1 / chroma_qp_offset=-2 / threads=3 / sliced_threads=0 / nr=0 \n\n/ decimate=1 / interlaced=0 / constrained_intra=0 / bframes=2 / b_pyramid=2 / b_adapt=1 / b_bias=0 / \n\ndirect=1 / weightb=0 / open_gop=0 / weightp=2 / keyint=250 / keyint_min=25 / scenecut=40 / \n\nintra_refresh=0 / rc_lookahead=40 / rc=abr / mbtree=1 / bitrate=3000 / ratetol=1.0 / qcomp=0.60 / \n\nqpmin=3 / qpmax=51 / qpstep=4 / ip_ratio=1.40 / aq=1:1.00\nLanguage                         : English\nColor primaries                  : BT.709-5, BT.1361, IEC 61966-2-4, SMPTE RP177\nTransfer characteristics         : BT.709-5, BT.1361\nMatrix coefficients              : BT.709-5, BT.1361, IEC 61966-2-4 709, SMPTE RP177\n\nAudio\nID                               : 2\nFormat                           : AC-3\nFormat/Info                      : Audio Coding 3\nMode extension                   : CM (complete main)\nCodec ID                         : A_AC3\nDuration                         : 2h 32mn\nBit rate mode                    : Constant\nBit rate                         : 128 Kbps\nChannel(s)                       : 2 channels\nChannel positions                : Front: L R\nSampling rate                    : 48.0 KHz\nBit depth                        : 16 bits\nCompression mode                 : Lossy\nStream size                      : 139 MiB (4%)\nLanguage                         : English\n\n\n\n\nEnjoy, TheBlackKnight","torrent":{"xt":"urn:btih:0f359ffb33b0ce504eb62b2cc2272bfae3cc9566","amp;dn":"Formula+1+2011+Race+14+Singapore+Race+%26amp%3B+Build+Up+HD+1080+H26","amp;tr":["udp%3A%2F%2Ftracker.openbittorrent.com%3A80","udp%3A%2F%2Fopen.demonii.com%3A1337","udp%3A%2F%2Ftracker.coppersurfer.tk%3A6969","udp%3A%2F%2Fexodus.desync.com%3A6969"],"infoHash":"0f359ffb33b0ce504eb62b2cc2272bfae3cc9566","infoHashBuffer":{"type":"Buffer","data":[15,53,159,251,51,176,206,80,78,182,43,44,194,39,43,250,227,204,149,102]},"announce":[],"urlList":[]}}